<?xml version="1.0" encoding="UTF-8" standalone="no"?>
<!DOCTYPE svg PUBLIC "-//W3C//DTD SVG 20010904//EN"
              "http://www.w3.org/TR/2001/REC-SVG-20010904/DTD/svg10.dtd">

<svg xmlns="http://www.w3.org/2000/svg"
     width="52.2046mm" height="50.4409mm"
     viewBox="0 0 148 143">
  <path id="Selection"
        fill="none" stroke="black" stroke-width="1"
        d="M 1.00,72.00
           C 4.00,65.65 13.74,57.26 19.00,52.00
             19.00,52.00 55.00,16.00 55.00,16.00
             58.98,12.02 69.28,-0.56 75.00,0.37
             78.84,1.00 84.21,7.21 87.00,10.00
             87.00,10.00 114.00,37.00 114.00,37.00
             114.00,37.00 138.00,61.00 138.00,61.00
             140.09,63.09 145.80,68.04 145.80,71.00
             145.80,74.41 134.78,84.22 132.00,87.00
             132.00,87.00 90.42,127.83 90.42,127.83
             90.42,127.83 79.00,138.94 79.00,138.94
             77.31,140.45 75.48,142.28 73.00,141.66
             70.88,141.13 67.59,137.58 66.00,136.00
             66.00,136.00 53.00,123.00 53.00,123.00
             53.00,123.00 21.00,91.00 21.00,91.00
             15.45,85.45 7.01,76.30 1.00,72.00 Z
           M 75.00,5.00
           C 75.00,5.00 59.00,20.00 59.00,20.00
             59.00,20.00 28.00,51.00 28.00,51.00
             28.00,51.00 9.00,69.00 9.00,69.00
             10.97,75.72 19.02,82.02 24.00,87.00
             24.00,87.00 58.00,121.00 58.00,121.00
             61.01,124.01 70.91,135.69 75.00,134.66
             77.79,133.97 87.40,123.60 90.00,121.00
             90.00,121.00 125.00,86.00 125.00,86.00
             128.18,82.82 139.46,73.61 137.83,69.01
             137.03,66.74 133.83,64.37 132.09,62.72
             132.09,62.72 121.17,52.00 121.17,52.00
             121.17,52.00 75.00,5.00 75.00,5.00 Z
           M 95.00,92.00
           C 95.00,92.00 81.00,78.00 81.00,78.00
             79.37,76.40 76.42,73.04 74.00,73.04
             70.69,73.04 60.85,84.27 58.00,86.98
             56.66,88.26 52.80,92.31 50.74,90.26
             48.69,88.20 52.74,84.34 54.02,83.00
             54.02,83.00 66.00,71.00 66.00,71.00
             67.59,69.42 70.88,65.87 73.00,65.34
             76.11,64.56 79.03,68.07 81.00,70.00
             86.22,75.12 94.97,83.37 99.00,89.00
             99.00,89.00 95.00,92.00 95.00,92.00 Z" />
</svg>
