<?xml version="1.0" encoding="UTF-8" standalone="no"?>
<!DOCTYPE svg PUBLIC "-//W3C//DTD SVG 20010904//EN"
              "http://www.w3.org/TR/2001/REC-SVG-20010904/DTD/svg10.dtd">

<svg xmlns="http://www.w3.org/2000/svg"
     width="5.29101mm" height="4.93827mm"
     viewBox="0 0 15 14">
  <path id="Selection"
        fill="none" stroke="black" stroke-width="1"
        d="M 0.10,7.05
           C 0.41,6.43 1.39,5.61 1.93,5.09
             1.93,5.09 5.57,1.57 5.57,1.57
             5.98,1.18 7.02,-0.06 7.60,0.04
             7.99,0.10 8.53,0.71 8.82,0.98
             8.82,0.98 11.55,3.62 11.55,3.62
             11.55,3.62 13.99,5.97 13.99,5.97
             14.20,6.18 14.78,6.66 14.78,6.95
             14.78,7.29 13.66,8.25 13.38,8.52
             13.38,8.52 9.16,12.51 9.16,12.51
             9.16,12.51 8.01,13.60 8.01,13.60
             7.84,13.75 7.65,13.93 7.40,13.87
             7.18,13.82 6.85,13.47 6.69,13.31
             6.69,13.31 5.37,12.04 5.37,12.04
             5.37,12.04 2.13,8.91 2.13,8.91
             1.57,8.37 0.71,7.47 0.10,7.05 Z
           M 7.60,0.49
           C 7.60,0.49 5.98,1.96 5.98,1.96
             5.98,1.96 2.84,4.99 2.84,4.99
             2.84,4.99 0.91,6.76 0.91,6.76
             1.11,7.41 1.93,8.03 2.43,8.52
             2.43,8.52 5.88,11.85 5.88,11.85
             6.18,12.14 7.19,13.28 7.60,13.18
             7.88,13.12 8.86,12.10 9.12,11.85
             9.12,11.85 12.67,8.42 12.67,8.42
             12.99,8.11 14.13,7.21 13.97,6.76
             13.89,6.53 13.56,6.30 13.39,6.14
             13.39,6.14 12.28,5.09 12.28,5.09
             12.28,5.09 7.60,0.49 7.60,0.49 Z
           M 9.63,9.01
           C 9.63,9.01 8.21,7.64 8.21,7.64
             8.04,7.48 7.75,7.15 7.50,7.15
             7.16,7.15 6.17,8.25 5.88,8.52
             5.74,8.64 5.35,9.04 5.14,8.84
             4.93,8.64 5.35,8.26 5.47,8.13
             5.47,8.13 6.69,6.95 6.69,6.95
             6.85,6.80 7.18,6.45 7.40,6.40
             7.71,6.32 8.01,6.66 8.21,6.85
             8.74,7.35 9.63,8.16 10.03,8.71
             10.03,8.71 9.63,9.01 9.63,9.01 Z" />
</svg>
